<svg width="24" height="25" viewBox="0 0 24 25" fill="none" xmlns="http://www.w3.org/2000/svg">
<path d="M2.5 25C1.8125 25 1.22417 24.7554 0.735 24.2663C0.245 23.7763 0 23.1875 0 22.5V2.5C0 1.8125 0.245 1.22375 0.735 0.73375C1.22417 0.244583 1.8125 0 2.5 0H12.5L20 7.5V12.5H17.5V8.75H11.25V2.5H2.5V22.5H10V25H2.5ZM17.875 15.6562L19.2188 17L14.375 21.8125V23.125H15.6875L20.5313 18.3125L21.8438 19.625L16.4688 25H12.5V21.0312L17.875 15.6562ZM21.8438 19.625L17.875 15.6562L19.6875 13.8438C19.9167 13.6146 20.2083 13.5 20.5625 13.5C20.9167 13.5 21.2083 13.6146 21.4375 13.8438L23.6563 16.0625C23.8854 16.2917 24 16.5833 24 16.9375C24 17.2917 23.8854 17.5833 23.6563 17.8125L21.8438 19.625Z" fill="#003954"/>
</svg>
